<mxfile host="Electron" modified="2023-04-15T08:38:14.911Z" agent="Mozilla/5.0 (X11; Linux x86_64) AppleWebKit/537.36 (KHTML, like Gecko) draw.io/21.1.2 Chrome/106.0.5249.199 Electron/21.4.3 Safari/537.36" etag="XnAznELHVAOaO2QhS001" version="21.1.2" type="device">
  <diagram name="Page-1" id="HUS-b-2fFfd0ITWpmIsU">
    <mxGraphModel dx="1114" dy="1095" grid="1" gridSize="10" guides="1" tooltips="1" connect="1" arrows="1" fold="1" page="1" pageScale="1" pageWidth="850" pageHeight="1100" math="0" shadow="0">
      <root>
        <mxCell id="0" />
        <mxCell id="1" parent="0" />
        <mxCell id="XQrB3ldbQ0HkZ4SikYRE-21" style="edgeStyle=orthogonalEdgeStyle;rounded=0;orthogonalLoop=1;jettySize=auto;html=1;strokeWidth=6;fillColor=#f8cecc;strokeColor=#b85450;" edge="1" parent="1" source="XQrB3ldbQ0HkZ4SikYRE-20">
          <mxGeometry relative="1" as="geometry">
            <mxPoint x="600" y="400" as="targetPoint" />
          </mxGeometry>
        </mxCell>
        <mxCell id="XQrB3ldbQ0HkZ4SikYRE-20" value="" style="ellipse;whiteSpace=wrap;html=1;aspect=fixed;" vertex="1" parent="1">
          <mxGeometry x="9.38" y="158.75" width="481.25" height="481.25" as="geometry" />
        </mxCell>
        <mxCell id="XQrB3ldbQ0HkZ4SikYRE-8" style="edgeStyle=orthogonalEdgeStyle;rounded=0;orthogonalLoop=1;jettySize=auto;html=1;entryX=0;entryY=0.5;entryDx=0;entryDy=0;curved=1;exitX=0.5;exitY=1;exitDx=0;exitDy=0;fillColor=#f8cecc;strokeColor=#b85450;strokeWidth=3;" edge="1" parent="1" source="XQrB3ldbQ0HkZ4SikYRE-1" target="XQrB3ldbQ0HkZ4SikYRE-6">
          <mxGeometry relative="1" as="geometry" />
        </mxCell>
        <mxCell id="XQrB3ldbQ0HkZ4SikYRE-1" value="Immich" style="rounded=0;whiteSpace=wrap;html=1;shadow=1;fillColor=#dae8fc;strokeColor=#6c8ebf;" vertex="1" parent="1">
          <mxGeometry x="20" y="240" width="120" height="60" as="geometry" />
        </mxCell>
        <mxCell id="XQrB3ldbQ0HkZ4SikYRE-10" style="edgeStyle=orthogonalEdgeStyle;rounded=0;orthogonalLoop=1;jettySize=auto;html=1;entryX=0;entryY=0.25;entryDx=0;entryDy=0;curved=1;fillColor=#f8cecc;strokeColor=#b85450;strokeWidth=3;" edge="1" parent="1" source="XQrB3ldbQ0HkZ4SikYRE-2" target="XQrB3ldbQ0HkZ4SikYRE-6">
          <mxGeometry relative="1" as="geometry" />
        </mxCell>
        <mxCell id="XQrB3ldbQ0HkZ4SikYRE-2" value="Immich" style="rounded=0;whiteSpace=wrap;html=1;shadow=1;fillColor=#dae8fc;strokeColor=#6c8ebf;" vertex="1" parent="1">
          <mxGeometry x="90" y="200" width="120" height="60" as="geometry" />
        </mxCell>
        <mxCell id="XQrB3ldbQ0HkZ4SikYRE-9" style="edgeStyle=orthogonalEdgeStyle;rounded=0;orthogonalLoop=1;jettySize=auto;html=1;entryX=1;entryY=0.5;entryDx=0;entryDy=0;curved=1;exitX=0.5;exitY=1;exitDx=0;exitDy=0;fillColor=#f8cecc;strokeColor=#b85450;strokeWidth=3;" edge="1" parent="1" source="XQrB3ldbQ0HkZ4SikYRE-5" target="XQrB3ldbQ0HkZ4SikYRE-6">
          <mxGeometry relative="1" as="geometry" />
        </mxCell>
        <mxCell id="XQrB3ldbQ0HkZ4SikYRE-5" value="Database" style="rounded=0;whiteSpace=wrap;html=1;shadow=1;fillColor=#f5f5f5;strokeColor=#666666;fontColor=#333333;" vertex="1" parent="1">
          <mxGeometry x="360" y="240" width="120" height="60" as="geometry" />
        </mxCell>
        <mxCell id="XQrB3ldbQ0HkZ4SikYRE-11" style="edgeStyle=orthogonalEdgeStyle;rounded=0;orthogonalLoop=1;jettySize=auto;html=1;entryX=1;entryY=0.25;entryDx=0;entryDy=0;curved=1;fillColor=#f8cecc;strokeColor=#b85450;strokeWidth=3;" edge="1" parent="1" source="XQrB3ldbQ0HkZ4SikYRE-4" target="XQrB3ldbQ0HkZ4SikYRE-6">
          <mxGeometry relative="1" as="geometry" />
        </mxCell>
        <mxCell id="XQrB3ldbQ0HkZ4SikYRE-4" value="Database" style="rounded=0;whiteSpace=wrap;html=1;shadow=1;fillColor=#f5f5f5;strokeColor=#666666;fontColor=#333333;" vertex="1" parent="1">
          <mxGeometry x="280" y="200" width="120" height="60" as="geometry" />
        </mxCell>
        <mxCell id="XQrB3ldbQ0HkZ4SikYRE-12" style="edgeStyle=orthogonalEdgeStyle;rounded=0;orthogonalLoop=1;jettySize=auto;html=1;entryX=0.5;entryY=0;entryDx=0;entryDy=0;fillColor=#f8cecc;strokeColor=#b85450;strokeWidth=3;" edge="1" parent="1" source="XQrB3ldbQ0HkZ4SikYRE-3" target="XQrB3ldbQ0HkZ4SikYRE-6">
          <mxGeometry relative="1" as="geometry" />
        </mxCell>
        <mxCell id="XQrB3ldbQ0HkZ4SikYRE-3" value="Immich" style="rounded=0;whiteSpace=wrap;html=1;shadow=1;fillColor=#dae8fc;strokeColor=#6c8ebf;" vertex="1" parent="1">
          <mxGeometry x="190" y="170" width="120" height="60" as="geometry" />
        </mxCell>
        <mxCell id="XQrB3ldbQ0HkZ4SikYRE-6" value="snap" style="whiteSpace=wrap;html=1;aspect=fixed;shadow=1;fillColor=#e1d5e7;strokeColor=#9673a6;" vertex="1" parent="1">
          <mxGeometry x="210" y="350" width="80" height="80" as="geometry" />
        </mxCell>
        <mxCell id="XQrB3ldbQ0HkZ4SikYRE-18" style="edgeStyle=orthogonalEdgeStyle;rounded=0;orthogonalLoop=1;jettySize=auto;html=1;entryX=1;entryY=0.75;entryDx=0;entryDy=0;curved=1;fillColor=#f8cecc;strokeColor=#b85450;strokeWidth=3;" edge="1" parent="1" source="XQrB3ldbQ0HkZ4SikYRE-13" target="XQrB3ldbQ0HkZ4SikYRE-6">
          <mxGeometry relative="1" as="geometry" />
        </mxCell>
        <mxCell id="XQrB3ldbQ0HkZ4SikYRE-13" value="Tools" style="rounded=0;whiteSpace=wrap;html=1;fillColor=#ffe6cc;strokeColor=#d79b00;" vertex="1" parent="1">
          <mxGeometry x="280" y="490" width="120" height="60" as="geometry" />
        </mxCell>
        <mxCell id="XQrB3ldbQ0HkZ4SikYRE-17" style="edgeStyle=orthogonalEdgeStyle;rounded=0;orthogonalLoop=1;jettySize=auto;html=1;entryX=0.5;entryY=1;entryDx=0;entryDy=0;fillColor=#f8cecc;strokeColor=#b85450;strokeWidth=3;" edge="1" parent="1" source="XQrB3ldbQ0HkZ4SikYRE-14" target="XQrB3ldbQ0HkZ4SikYRE-6">
          <mxGeometry relative="1" as="geometry" />
        </mxCell>
        <mxCell id="XQrB3ldbQ0HkZ4SikYRE-14" value="Automatic updates" style="rounded=0;whiteSpace=wrap;html=1;fillColor=#ffe6cc;strokeColor=#d79b00;" vertex="1" parent="1">
          <mxGeometry x="190" y="570" width="120" height="60" as="geometry" />
        </mxCell>
        <mxCell id="XQrB3ldbQ0HkZ4SikYRE-19" style="edgeStyle=orthogonalEdgeStyle;rounded=0;orthogonalLoop=1;jettySize=auto;html=1;entryX=0;entryY=0.75;entryDx=0;entryDy=0;curved=1;fillColor=#f8cecc;strokeColor=#b85450;strokeWidth=3;" edge="1" parent="1" source="XQrB3ldbQ0HkZ4SikYRE-15" target="XQrB3ldbQ0HkZ4SikYRE-6">
          <mxGeometry relative="1" as="geometry" />
        </mxCell>
        <mxCell id="XQrB3ldbQ0HkZ4SikYRE-15" value="New features" style="rounded=0;whiteSpace=wrap;html=1;fillColor=#ffe6cc;strokeColor=#d79b00;" vertex="1" parent="1">
          <mxGeometry x="90" y="490" width="120" height="60" as="geometry" />
        </mxCell>
      </root>
    </mxGraphModel>
  </diagram>
</mxfile>
